<svg width="66" height="65" viewBox="0 0 66 65" fill="none" xmlns="http://www.w3.org/2000/svg">
<path d="M33.4711 24.0918L33.7113 21.0625L31.0087 21.7975L30.729 23.7744" fill="#FC7F3A"/>
<path d="M33.5986 24.0918L33.68 23.0655L33.809 21.4383L33.8388 21.0625C33.8384 21.0233 33.8196 20.9865 33.788 20.9628C33.7564 20.939 33.7153 20.931 33.6769 20.9411L32.7678 21.1883L31.309 21.585L30.9743 21.676C30.9305 21.6873 30.8964 21.7209 30.8849 21.764L30.6396 23.4985L30.6053 23.7409C30.5889 23.8077 30.628 23.8755 30.6946 23.8959C30.7627 23.9139 30.8328 23.8747 30.852 23.8079L31.0973 22.0734L31.1316 21.831L31.0423 21.9189L31.9514 21.6717L33.4102 21.275L33.7449 21.184L33.583 21.0625L33.5016 22.0888L33.3726 23.716L33.3428 24.0918C33.33 24.2535 33.5859 24.2526 33.5986 24.0918L33.5986 24.0918Z" fill="black"/>
<path d="M33.6759 21.4893C34.0119 20.4342 34.8984 19.916 35.0641 19.0884C35.1603 18.6078 34.6163 17.4914 34.6163 17.4914L29.6003 17.183C29.6003 17.183 27.0202 22.4861 31.923 22.1502" fill="#FC7F3A"/>
<path d="M33.7993 21.5228C33.926 21.1618 34.1117 20.8236 34.3491 20.5215C34.5531 20.2479 34.7803 19.9884 34.9551 19.6948C35.1028 19.4467 35.2243 19.1593 35.1992 18.8664C35.1631 18.5662 35.0855 18.2723 34.9685 17.9928C34.8957 17.8018 34.8164 17.612 34.7269 17.4279C34.7039 17.3893 34.6619 17.3655 34.6164 17.3655L32.9173 17.261L30.2141 17.0948L29.6004 17.0571C29.5547 17.0564 29.5124 17.0803 29.4899 17.1195C29.4014 17.3017 29.326 17.491 29.2548 17.6802C29.0977 18.0914 28.9762 18.5148 28.8917 18.9461C28.7946 19.4556 28.7535 19.9825 28.8472 20.4956C28.9398 21.0024 29.1905 21.468 29.6094 21.784C30.1616 22.2007 30.8975 22.3006 31.5742 22.2909C31.6906 22.2893 31.8069 22.284 31.9231 22.2762C32.0864 22.2653 32.0877 22.0133 31.9231 22.0243C31.5202 22.0586 31.1145 22.0418 30.7159 21.9743C30.425 21.926 30.1461 21.8237 29.8939 21.673C29.7888 21.6109 29.692 21.536 29.6059 21.4501C29.5625 21.4081 29.5214 21.364 29.4828 21.3179C29.4735 21.3068 29.4644 21.2957 29.4554 21.2844C29.4715 21.3045 29.4472 21.2735 29.4426 21.2673C29.4234 21.2416 29.4049 21.2154 29.3871 21.1887C29.3548 21.14 29.3248 21.0898 29.2973 21.0382C29.284 21.0133 29.2713 20.988 29.2591 20.9625C29.253 20.9498 29.2472 20.937 29.2413 20.9241C29.2383 20.9177 29.2355 20.9112 29.2326 20.9048C29.2265 20.8909 29.2402 20.9231 29.2309 20.9007C29.1862 20.792 29.1501 20.6801 29.1228 20.566C29.1085 20.5064 29.0964 20.4464 29.0864 20.3859C29.084 20.3716 29.0819 20.3572 29.0796 20.3429C29.0785 20.3357 29.0775 20.3285 29.0765 20.3213C29.0771 20.3261 29.0798 20.3469 29.0766 20.3224C29.0726 20.2916 29.0691 20.2608 29.066 20.2299C29.054 20.1068 29.0487 19.9832 29.0499 19.8596C29.0509 19.7366 29.0578 19.6136 29.0693 19.4911C29.0752 19.428 29.0825 19.3651 29.0907 19.3022C29.0934 19.2816 29.0887 19.315 29.0937 19.2805C29.0958 19.2658 29.0979 19.2511 29.1001 19.2365C29.1048 19.2054 29.1098 19.1743 29.115 19.1433C29.1912 18.7063 29.3066 18.2768 29.4599 17.8599C29.5118 17.716 29.5675 17.5736 29.6271 17.4326C29.6433 17.3942 29.6193 17.4502 29.6323 17.4206C29.6375 17.4086 29.6427 17.3966 29.6479 17.3847C29.6565 17.3651 29.6652 17.3455 29.674 17.326C29.6861 17.3032 29.697 17.2797 29.7065 17.2556C29.7077 17.2526 29.7092 17.2496 29.7108 17.2467L29.6004 17.3091L31.2995 17.4135L34.0027 17.5797L34.6164 17.6174L34.506 17.555C34.5777 17.7026 34.6317 17.8305 34.6907 17.9797C34.8045 18.2444 34.8869 18.5211 34.9365 18.8043C34.9741 19.0677 34.8856 19.309 34.7439 19.5511C34.5791 19.8329 34.3641 20.0826 34.1672 20.3425C33.9007 20.6772 33.693 21.0536 33.5526 21.4559C33.5025 21.6107 33.7494 21.677 33.7993 21.5229L33.7993 21.5228Z" fill="black"/>
<path d="M33.1797 19.765C33.1811 19.7615 33.1826 19.7582 33.184 19.7548C33.1859 19.7501 33.1767 19.7714 33.1835 19.7559C33.1861 19.7501 33.1887 19.7442 33.1913 19.7384C33.2065 19.7043 33.2224 19.6705 33.2392 19.637C33.2873 19.5384 33.3429 19.4435 33.4055 19.3531C33.4362 19.3084 33.4708 19.2665 33.509 19.2278C33.5413 19.1921 33.5801 19.1627 33.6234 19.1411C33.6256 19.14 33.6394 19.1339 33.6331 19.1365C33.6269 19.139 33.6407 19.1338 33.643 19.1331C33.6537 19.1297 33.6646 19.127 33.6757 19.1248C33.6879 19.1223 33.6665 19.1248 33.6789 19.1245C33.684 19.1244 33.689 19.124 33.6941 19.1241C33.6992 19.1241 33.7042 19.1245 33.7093 19.1248C33.6962 19.1239 33.7096 19.1248 33.7152 19.1261C33.7445 19.1327 33.7721 19.1454 33.7962 19.1632C33.7986 19.1651 33.8166 19.1834 33.8143 19.1804C33.8181 19.1856 33.8216 19.191 33.8246 19.1966C33.8295 19.2049 33.8253 19.1945 33.8291 19.2066C33.8346 19.2258 33.8358 19.2459 33.8323 19.2655C33.8294 19.2786 33.8258 19.2915 33.8215 19.3042C33.8194 19.3104 33.817 19.3165 33.8145 19.3226C33.8191 19.3117 33.8126 19.3261 33.8109 19.3296C33.8015 19.3485 33.7909 19.3667 33.7792 19.3842C33.7754 19.3898 33.7713 19.3951 33.7675 19.4007C33.7594 19.4125 33.7725 19.3944 33.7716 19.3956C33.7477 19.4206 33.7477 19.4596 33.7716 19.4846C33.7967 19.509 33.837 19.509 33.8621 19.4846C33.9233 19.4155 33.9587 19.3277 33.9623 19.236C33.9556 19.1662 33.9208 19.1019 33.8656 19.0575C33.8105 19.0131 33.7396 18.9922 33.6688 18.9996C33.5447 19.0128 33.4451 19.1026 33.3689 19.1935C33.2866 19.2943 33.2155 19.4034 33.1566 19.5189C33.1202 19.5882 33.0861 19.6591 33.0564 19.7315C33.0473 19.765 33.0672 19.7995 33.1011 19.8089C33.135 19.8173 33.1697 19.7979 33.1798 19.7649L33.1797 19.765Z" fill="black"/>
<path d="M36.1577 23.9697L36.2071 22.9231C36.2297 22.4446 36.6267 22.0529 37.1476 21.995L44.0765 21.2616L43.5891 22.8762L44.3424 25.1019L37.2866 24.4146" fill="white"/>
<path d="M36.2858 23.9697L36.3299 23.035C36.3279 22.8686 36.3688 22.7045 36.4487 22.5579C36.5955 22.3251 36.8384 22.1673 37.1135 22.1261C37.213 22.1095 37.3149 22.1033 37.4151 22.0927L38.1546 22.0144L40.439 21.7726L42.8116 21.5215L43.6476 21.433C43.783 21.4186 43.924 21.4139 44.0579 21.3895C44.0641 21.3884 44.0705 21.3882 44.0766 21.3876L43.9533 21.2281L43.7321 21.9608C43.6453 22.2483 43.5481 22.5348 43.4712 22.8251C43.4601 22.8814 43.468 22.9398 43.4935 22.9913L43.6129 23.3441L43.975 24.4138L44.2192 25.1353L44.3425 24.9759L43.6427 24.9077L41.9538 24.7432L39.9179 24.5449L38.1573 24.3734L37.5763 24.3168C37.4845 24.3079 37.3909 24.2926 37.2986 24.2898C37.2947 24.2897 37.2907 24.289 37.2868 24.2886C37.2164 24.2891 37.1594 24.3452 37.1589 24.4146C37.1604 24.4835 37.2168 24.5391 37.2868 24.5405L37.9867 24.6087L39.6756 24.7732L41.7114 24.9715L43.472 25.143L44.053 25.1996C44.1448 25.2086 44.2384 25.2238 44.3307 25.2267C44.3346 25.2268 44.3386 25.2274 44.3425 25.2278C44.3823 25.2275 44.4198 25.2091 44.4439 25.1779C44.468 25.1467 44.4761 25.1063 44.4658 25.0684L43.8069 23.1214L43.7126 22.8428V22.9097L44.1385 21.4989L44.2 21.2951C44.2102 21.2572 44.2021 21.2168 44.178 21.1856C44.1539 21.1544 44.1165 21.136 44.0766 21.1357L43.0175 21.2477L40.6752 21.4957L38.3021 21.7468C37.9183 21.7875 37.5341 21.8253 37.1507 21.8687C36.5927 21.932 36.1158 22.3426 36.08 22.9126C36.0602 23.2289 36.05 23.5462 36.035 23.8628L36.03 23.9697C36.0223 24.1318 36.2781 24.1314 36.2858 23.9697H36.2858Z" fill="black"/>
<path d="M2.9043 37.4365L48.6723 32.4402L44.2949 39.1114L2.9043 37.4365V37.4365Z" fill="black"/>
<path d="M2.9041 37.5624L4.12892 37.4287L7.46207 37.0649L12.3917 36.5267L18.4058 35.8702L24.9699 35.1536L31.6181 34.4279L37.8168 33.7512L43.0387 33.1811L46.8184 32.7685L47.985 32.6412C48.1846 32.6194 48.3987 32.6163 48.5953 32.5745C48.6201 32.5693 48.6469 32.5689 48.6721 32.5662L48.5617 32.3766L47.0801 34.6346L44.7301 38.216L44.1843 39.0478L44.2947 38.9854L43.1814 38.9404L40.1814 38.819L35.7129 38.6381L30.2804 38.4183L24.3307 38.1776L18.3254 37.9346L12.7257 37.708L7.99307 37.5164L4.58874 37.3787C4.05051 37.3569 3.51065 37.3209 2.97197 37.3133C2.94935 37.3129 2.9267 37.3114 2.9041 37.3105C2.73949 37.3039 2.7398 37.5558 2.9041 37.5624L4.47346 37.6259L8.65006 37.795L14.6367 38.0372L21.6134 38.3195L28.8068 38.6106L35.4464 38.8793L40.7121 39.0924L43.8068 39.2176C43.957 39.2237 44.141 39.2605 44.2904 39.2372C44.4156 39.2176 44.4778 39.0642 44.5414 38.9673L45.1125 38.0969L48.526 32.8947L48.7826 32.5038C48.8316 32.429 48.7686 32.3037 48.6721 32.3142L47.4473 32.4479L44.1141 32.8118L39.1845 33.35L33.1704 34.0065L26.6063 34.7231L19.9581 35.4488L13.7594 36.1255L8.53754 36.6955L4.75781 37.1082C4.16552 37.1728 3.57298 37.2358 2.9809 37.3021C2.9553 37.305 2.92969 37.3077 2.9041 37.3105C2.74227 37.3282 2.74045 37.5803 2.9041 37.5624Z" fill="black"/>
<path d="M48.6723 32.4402L42.7232 26.8862L2.9043 37.4365L48.6723 32.4402V32.4402Z" fill="#FFC41F"/>
<path d="M48.7628 32.3511L44.9845 28.8237L43.0325 27.0014C42.9408 26.9158 42.8248 26.7544 42.6876 26.7652C42.6451 26.7726 42.6033 26.7837 42.5627 26.7983L40.2657 27.4068L35.654 28.6288L29.5492 30.2463L22.6473 32.075L15.7808 33.8943L9.69887 35.5058L5.16023 36.7083L2.96544 37.2898L2.8704 37.315C2.73583 37.3507 2.75733 37.5785 2.9044 37.5624L4.12923 37.4287L7.46237 37.0649L12.392 36.5267L18.4061 35.8702L24.9702 35.1536L31.6184 34.4279L37.8171 33.7512L43.039 33.1811L46.8187 32.7685C47.411 32.7039 48.0035 32.6409 48.5956 32.5745C48.6212 32.5717 48.6468 32.569 48.6724 32.5662C48.8342 32.5485 48.8361 32.2964 48.6724 32.3142L47.4476 32.4479L44.1144 32.8118L39.1848 33.35L33.1707 34.0065L26.6066 34.7231L19.9584 35.4488L13.7597 36.1255L8.53781 36.6955L4.75809 37.1082L3.59151 37.2355C3.39164 37.2574 3.17811 37.261 2.98117 37.3022C2.95638 37.3073 2.92964 37.3078 2.90437 37.3105L2.93837 37.558L4.00294 37.2759L6.9002 36.5083L11.1854 35.3729L16.414 33.9875L22.1411 32.47L27.9221 30.9383L33.3124 29.5101L37.8671 28.3033L41.1417 27.4357L42.1599 27.1659C42.3396 27.1286 42.517 27.0816 42.6914 27.0251C42.713 27.0181 42.735 27.0123 42.7572 27.0076L42.6328 26.9752L44.6444 28.8533L47.8489 31.8449L48.5819 32.5293C48.7014 32.6408 48.8826 32.4629 48.7628 32.3511Z" fill="black"/>
<path d="M30.0506 28.9315L22.4847 33.2426C20.5792 34.0158 18.6881 32.8755 17.8539 31.1756L13.9868 23.2966L17.2255 21.7105L21.1717 29.8418L27.1675 25.2323C27.7113 24.8142 28.3929 24.6088 29.0812 24.6557L30.6599 24.7631" fill="#A8542A"/>
<path d="M29.9861 28.8227L29.0101 29.3788L26.7708 30.6548L24.301 32.0621L22.6336 33.0122C22.4914 33.0988 22.3391 33.168 22.1799 33.2183C21.5072 33.4273 20.7824 33.4048 20.1244 33.1547C19.122 32.7785 18.3808 31.9604 17.9227 31.027L17.2129 29.581L16.0091 27.1282L14.8138 24.6929L14.1297 23.2989L14.0973 23.233L14.0515 23.4054L15.1431 22.8708L16.8911 22.0147L17.2902 21.8192L17.1152 21.774L17.5083 22.584L18.4521 24.5287L19.5933 26.8803L20.5763 28.9058L20.9011 29.5751C20.952 29.6799 20.9978 29.7894 21.0545 29.8912C21.057 29.8958 21.0591 29.9007 21.0614 29.9053C21.1006 29.9863 21.2033 29.9761 21.2622 29.9308L22.2463 29.1743L24.3717 27.5403L26.4388 25.9511L27.0781 25.4597C27.2512 25.3184 27.4368 25.1927 27.6328 25.0841C27.9924 24.8948 28.3915 24.7896 28.7991 24.7765C28.9685 24.7749 29.1378 24.7817 29.3065 24.797L30.5636 24.8825L30.6599 24.8891C30.8242 24.9003 30.8235 24.6483 30.6599 24.6371L29.5866 24.5641C29.4255 24.5531 29.2644 24.5422 29.1033 24.5312C28.776 24.5083 28.4472 24.5389 28.13 24.6217C27.7172 24.738 27.3326 24.9357 26.9996 25.2028L26.4785 25.6034L24.4981 27.1259L22.2946 28.82L21.4956 29.4343C21.3644 29.5351 21.2243 29.6302 21.0996 29.7388C21.0939 29.7437 21.0874 29.7481 21.0814 29.7527L21.2823 29.7782L20.8892 28.9683L19.9454 27.0236L18.8042 24.672L17.8212 22.6465L17.4963 21.9771C17.4455 21.8724 17.3996 21.7629 17.3429 21.6611C17.3404 21.6565 17.3383 21.6516 17.3361 21.6469C17.2996 21.5879 17.2222 21.5679 17.1611 21.6018L16.0695 22.1364L14.3214 22.9924L13.9224 23.1879C13.8625 23.2238 13.8423 23.3 13.8765 23.3602L14.3681 24.3619L15.4994 26.6669L16.7517 29.2184L17.6162 30.9799C17.6658 31.081 17.7146 31.1825 17.7653 31.283C18.0899 31.9296 18.5672 32.49 19.1572 32.9172C19.7281 33.335 20.4118 33.5771 21.1221 33.613C21.4948 33.6266 21.8671 33.5778 22.2233 33.4688C22.3482 33.4364 22.469 33.3905 22.5836 33.3318L23.8666 32.6007L26.2457 31.2451L28.6604 29.8692L30.0499 29.0774L30.1152 29.0402C30.2576 28.959 30.1289 28.7413 29.986 28.8227L29.9861 28.8227Z" fill="black"/>
<path d="M29.0812 24.6557C28.3929 24.6089 27.7114 24.8142 27.1675 25.2323L21.1718 29.8418L18.4349 24.2025C17.9997 24.5247 17.3566 24.8934 16.6117 25.2301C16.1093 25.4572 14.1303 25.7534 13.7056 25.8838L15.6434 32.2197C16.3619 34.4104 18.605 35.7539 22.1348 34.1732L30.0044 30.0018L30.6599 24.7631L29.0812 24.6557Z" fill="#A8542A"/>
<path d="M29.0813 24.5297C28.3804 24.4856 27.6867 24.6901 27.1258 25.1063C27.0468 25.1653 26.9692 25.2262 26.891 25.2863L25.6091 26.2719L23.7259 27.7197L21.976 29.065L21.3806 29.5227C21.2863 29.5952 21.1821 29.663 21.0941 29.743C21.0902 29.7466 21.0856 29.7495 21.0814 29.7527L21.2823 29.7782L21.0111 29.2194L20.356 27.8695L19.5667 26.2431L18.8839 24.8362C18.7736 24.609 18.6763 24.3678 18.5501 24.1485C18.5484 24.1454 18.547 24.1421 18.5455 24.1389C18.5097 24.0789 18.4315 24.0587 18.3705 24.0937C18.0194 24.3471 17.6492 24.5739 17.2632 24.7722C17.0284 24.8957 16.7897 25.013 16.5472 25.1213C16.5423 25.1236 16.5125 25.1359 16.5417 25.124C16.5318 25.1281 16.5219 25.132 16.5118 25.1357C16.4936 25.1425 16.4754 25.1491 16.457 25.1554C16.4009 25.1746 16.3441 25.1916 16.2871 25.2078C15.6764 25.3802 15.044 25.4813 14.4212 25.6009C14.1686 25.6417 13.9184 25.6956 13.6717 25.7623C13.6042 25.7817 13.5647 25.8503 13.5823 25.9173L13.7551 26.4821L14.1767 27.8605L14.7022 29.5786L15.1866 31.1626L15.4851 32.1385C15.6044 32.5413 15.7799 32.9258 16.0068 33.2809C16.3669 33.8423 16.8757 34.2963 17.4783 34.5941C18.1614 34.9244 18.9316 35.0314 19.686 34.9727C20.151 34.934 20.6103 34.8464 21.0563 34.7113C21.4513 34.5999 21.8359 34.4551 22.2057 34.2786C22.375 34.1944 22.5402 34.1013 22.7072 34.0128L23.8332 33.4159L25.3334 32.6207L26.957 31.7601L28.4537 30.9667L29.573 30.3735C29.7353 30.2874 29.9072 30.2096 30.0637 30.1134C30.137 30.0683 30.1354 29.9782 30.1449 29.9016L30.1986 29.4727L30.3892 27.9492L30.6102 26.183L30.7652 24.9442L30.7879 24.7631C30.7968 24.6923 30.7219 24.6414 30.66 24.6372L29.2767 24.543L29.0813 24.5297C28.917 24.5185 28.9177 24.7705 29.0813 24.7816L30.4646 24.8758L30.66 24.8891L30.5321 24.7631L30.3093 26.5438L29.9571 29.3583L29.8766 30.0018L29.94 29.893L28.9956 30.3936L26.7987 31.5581L24.31 32.8772L22.4703 33.8524C22.343 33.9198 22.2166 33.9894 22.0882 34.0549C21.9011 34.1453 21.7088 34.2248 21.5123 34.293C21.146 34.4306 20.7694 34.54 20.3859 34.6203C19.242 34.8549 18.0032 34.7516 17.0484 34.0378C16.4062 33.5577 15.971 32.8536 15.7405 32.1001L15.2041 30.3463L14.3917 27.6902L13.8559 25.9385L13.829 25.8503L13.7396 26.0053C13.9565 25.9461 14.1764 25.8981 14.3983 25.8613C14.7219 25.7987 15.046 25.7386 15.3693 25.6742C15.6743 25.6135 15.9799 25.5514 16.2804 25.4712C16.5998 25.3758 16.9081 25.2476 17.2003 25.0887C17.6548 24.866 18.0895 24.6059 18.4996 24.3112L18.3246 24.2661L18.5958 24.8249L19.2509 26.1748L20.0402 27.8012L20.723 29.2081C20.8332 29.4353 20.9306 29.6765 21.0567 29.8957C21.0585 29.8988 21.0598 29.9022 21.0614 29.9054C21.1007 29.9863 21.2034 29.9761 21.2622 29.9308L21.9773 29.3811L23.6427 28.1008L25.5327 26.6478L26.9398 25.566C27.0402 25.4889 27.1405 25.4117 27.2409 25.3345C27.6262 25.0403 28.0846 24.8533 28.5684 24.7932C28.7386 24.7742 28.9103 24.7703 29.0813 24.7816C29.2457 24.792 29.245 24.5401 29.0813 24.5297Z" fill="black"/>
<path d="M13.6858 25.8739C13.7809 26.0778 14.3817 26.0223 15.2013 25.7707L14.7351 24.8208C14.018 25.2643 13.5916 25.6716 13.6858 25.8739Z" fill="black"/>
<path d="M13.5755 25.9375C13.6726 26.1304 13.9594 26.1323 14.1444 26.121C14.516 26.0875 14.8822 26.0107 15.2354 25.8921C15.2732 25.881 15.3039 25.8537 15.3187 25.8177C15.3336 25.7817 15.3311 25.741 15.3119 25.7071L14.8457 24.7572C14.8096 24.6976 14.7317 24.6775 14.6707 24.712C14.3608 24.9044 14.0449 25.1127 13.7903 25.3746C13.6467 25.5223 13.4837 25.7241 13.5755 25.9375C13.6115 25.9972 13.6895 26.0173 13.7505 25.9827C13.81 25.9464 13.8301 25.8706 13.7964 25.8103C13.8097 25.8413 13.802 25.822 13.8003 25.8141C13.7969 25.7989 13.8012 25.8428 13.801 25.8192C13.801 25.812 13.8013 25.8048 13.8016 25.7976C13.8022 25.7823 13.7937 25.8274 13.8021 25.7994C13.8047 25.7905 13.8155 25.7569 13.8119 25.7658C13.8057 25.7812 13.8182 25.7528 13.8198 25.75C13.8246 25.741 13.8294 25.7321 13.8346 25.7233C13.8868 25.6407 13.9505 25.5658 14.0238 25.5006C14.2617 25.2844 14.5218 25.093 14.7998 24.9296L14.6248 24.8844L15.091 25.8343L15.1674 25.6492C14.8536 25.7543 14.5295 25.8266 14.2004 25.8649C14.1419 25.8703 14.0832 25.8728 14.0244 25.8722C13.9991 25.8718 13.9738 25.8705 13.9485 25.8686C13.9351 25.8685 13.9217 25.8668 13.9088 25.8634C13.8892 25.8596 13.8702 25.8548 13.851 25.8494C13.8423 25.8469 13.8338 25.8439 13.8255 25.8405C13.8515 25.8512 13.8298 25.8415 13.8244 25.8385C13.8177 25.8347 13.8111 25.8307 13.8046 25.8265C13.8162 25.834 13.8211 25.8355 13.807 25.8271C13.7934 25.819 13.7987 25.819 13.8083 25.831C13.8037 25.8245 13.7997 25.8176 13.7964 25.8103C13.7234 25.665 13.5027 25.7925 13.5755 25.9375Z" fill="black"/>
<path d="M18.0553 23.42L17.2257 21.7105L13.8467 22.5281L14.3156 24.2916L14.742 25.929C15.1667 25.7986 16.1094 25.4572 16.6118 25.2301C17.3567 24.8934 17.9998 24.5247 18.435 24.2025L18.0553 23.42Z" fill="#FC7F3A"/>
<path d="M18.1659 23.3565L17.4402 21.8611L17.3363 21.6469C17.3067 21.598 17.2477 21.5744 17.1918 21.5891L16.0465 21.8662L14.2304 22.3056L13.8128 22.4066C13.7453 22.426 13.7058 22.4946 13.7235 22.5616L14.1191 24.0495C14.2254 24.4489 14.3289 24.849 14.433 25.249L14.6187 25.9625C14.6381 26.0291 14.7081 26.0682 14.7761 26.0505C15.2369 25.9084 15.6907 25.7397 16.1388 25.5631C16.682 25.3503 17.209 25.0996 17.7159 24.813C17.9871 24.6613 18.2488 24.4937 18.4997 24.3113C18.5585 24.2746 18.5786 24.1993 18.5456 24.1389L18.1659 23.3565C18.0949 23.2103 17.8743 23.3379 17.945 23.4836L18.3247 24.2661L18.3706 24.0937C17.4807 24.7499 16.4455 25.1955 15.4072 25.5699C15.1758 25.6533 14.9434 25.7351 14.7081 25.8076L14.8654 25.8956L14.4795 24.4132C14.3719 24 14.2608 23.5877 14.1511 23.1751L13.9701 22.4946L13.8808 22.6496L15.0261 22.3725L16.8422 21.9331L17.2598 21.832L17.1153 21.7741L17.8411 23.2695L17.945 23.4836C18.016 23.6298 18.2366 23.5022 18.1659 23.3565Z" fill="black"/>
<path d="M14.4012 24.6694L14.0023 23.2806L14.2886 20.5637C14.2886 20.5637 14.7772 19.5662 13.7764 18.914C14.8235 17.3349 16.4787 17.7725 16.7041 19.2968C16.7961 19.9186 16.9004 20.437 16.9917 20.8329C17.1089 21.3418 17.284 21.8361 17.5134 22.3065L17.8506 22.9975" fill="#FC7F3A"/>
<path d="M14.5242 24.6359L14.2863 23.8074L14.1511 23.3366C14.1444 23.3065 14.1359 23.277 14.1257 23.2479C14.1637 23.2477 14.1214 23.2972 14.1309 23.2722C14.1332 23.2617 14.1343 23.2509 14.1342 23.2401L14.3415 21.2726L14.4162 20.5636L14.3987 20.6272C14.6004 20.2042 14.5803 19.7109 14.3449 19.3052C14.2161 19.1041 14.0439 18.9335 13.8406 18.8052L13.8865 18.9775C14.1739 18.5479 14.5869 18.1574 15.1184 18.0639C15.52 17.9975 15.9276 18.142 16.1941 18.4452C16.584 18.875 16.5954 19.4768 16.6933 20.015C16.8161 20.6906 16.9655 21.3602 17.2336 21.9962C17.3861 22.358 17.5677 22.7082 17.7398 23.0611C17.8111 23.2071 18.0317 23.0795 17.9607 22.9339C17.8187 22.6428 17.6704 22.3539 17.5371 22.0588C17.2385 21.3981 17.0774 20.6961 16.9471 19.9875C16.912 19.7968 16.8797 19.6057 16.85 19.4141C16.8309 19.2628 16.8013 19.113 16.7614 18.9657C16.6899 18.7214 16.5678 18.4943 16.4028 18.2987C16.1039 17.9463 15.6484 17.7608 15.1841 17.8026C14.5284 17.8696 14.015 18.328 13.6656 18.8504C13.6313 18.9107 13.6516 18.9869 13.7115 19.0228C13.9985 19.2126 14.2141 19.4839 14.268 19.8257C14.2764 19.8852 14.2803 19.9453 14.2796 20.0053C14.2793 20.036 14.2781 20.0667 14.2757 20.0973C14.2747 20.1109 14.2735 20.1244 14.2721 20.1379C14.2715 20.144 14.2667 20.1819 14.2694 20.1629C14.2565 20.2533 14.235 20.3423 14.2052 20.4288C14.1965 20.454 14.186 20.4786 14.1767 20.5036C14.1984 20.445 14.1634 20.5428 14.1626 20.5469C14.1568 20.5757 14.1559 20.6063 14.1528 20.6354L14.1004 21.1324L13.9396 22.6596L13.8841 23.1857C13.875 23.2603 13.8823 23.3359 13.9055 23.4075L14.2677 24.6688L14.2776 24.7029C14.3223 24.8587 14.5692 24.7925 14.5242 24.636L14.5242 24.6359Z" fill="black"/>
<path d="M15.8164 19.6713C15.8701 19.1442 15.4592 18.04 15.214 17.1936C14.9688 16.3473 15.5564 15.974 16.0067 16.7551C16.568 17.763 16.7575 19.3164 16.8122 19.9191C16.8288 20.1017 16.8589 20.2829 16.9022 20.4612L17.0423 21.0376" fill="#FC7F3A"/>
<path d="M15.9442 19.6713C15.9693 19.4021 15.9043 19.1221 15.8413 18.8619C15.7591 18.5222 15.6542 18.1881 15.5499 17.8545C15.4966 17.6837 15.4428 17.5131 15.3911 17.3418C15.3358 17.1877 15.3001 17.0275 15.285 16.8648C15.2744 16.7512 15.2975 16.6371 15.3515 16.5361C15.3799 16.4783 15.4429 16.4451 15.5075 16.4541C15.4907 16.4527 15.542 16.4621 15.5524 16.4655C15.5705 16.4717 15.5878 16.4798 15.6042 16.4896C15.6583 16.522 15.7068 16.5625 15.7481 16.6098C15.8509 16.7321 15.935 16.8686 15.9977 17.0149C16.1377 17.3149 16.2509 17.6263 16.3358 17.9456C16.4892 18.5094 16.5971 19.0843 16.6584 19.6648C16.6831 19.9567 16.7264 20.2467 16.7882 20.5332L16.9188 21.0711C16.9571 21.2287 17.2038 21.162 17.1655 21.0041L17.0415 20.4936C16.9842 20.24 16.9439 19.9831 16.9207 19.7243C16.8602 19.1168 16.7513 18.5149 16.595 17.9242C16.5048 17.5829 16.3854 17.2498 16.2379 16.9284C16.1098 16.6548 15.934 16.3214 15.6204 16.2226C15.3654 16.1422 15.1499 16.3077 15.0701 16.54C14.961 16.8573 15.0793 17.1969 15.1728 17.5019C15.2952 17.9017 15.4267 18.299 15.5363 18.7025C15.6202 19.0115 15.7186 19.3478 15.6884 19.6712C15.6889 19.7406 15.7459 19.7967 15.8163 19.7972C15.8864 19.7958 15.9428 19.7402 15.9442 19.6712L15.9442 19.6713Z" fill="black"/>
<path d="M16.2715 19.9389C16.2715 19.9389 15.9188 17.8219 15.0734 16.633C14.5392 15.9049 13.9964 16.3391 14.3339 17.154C14.6714 17.969 15.1567 19.3119 15.1617 19.8416" fill="#FC7F3A"/>
<path d="M16.3948 19.9054C16.3459 19.613 16.2778 19.3229 16.2042 19.0358C16.0567 18.4348 15.8524 17.8488 15.5939 17.2854C15.4634 16.9852 15.2929 16.7033 15.087 16.4473C14.9126 16.245 14.6052 16.0308 14.3331 16.1919C14.0721 16.3465 14.0756 16.7095 14.137 16.9646C14.1832 17.1238 14.2407 17.2796 14.3093 17.4308C14.3726 17.5896 14.434 17.7491 14.4936 17.9093C14.6277 18.2695 14.754 18.6329 14.8616 19.0017C14.9415 19.2756 15.0293 19.5663 15.0337 19.8416C15.0362 20.0036 15.292 20.0041 15.2895 19.8416C15.2764 19.6025 15.2345 19.3657 15.1646 19.1363C15.0822 18.826 14.982 18.5203 14.8758 18.2172C14.7685 17.9108 14.6541 17.6069 14.5326 17.3055C14.4369 17.0675 14.2725 16.7419 14.3939 16.4927C14.3992 16.4821 14.4051 16.4717 14.4115 16.4616C14.4135 16.4585 14.4305 16.4352 14.4198 16.4485C14.4265 16.4401 14.4622 16.4088 14.4516 16.4163C14.4783 16.3954 14.512 16.3853 14.5459 16.3881C14.6505 16.3936 14.7647 16.4777 14.8468 16.5609C15.061 16.7781 15.2087 17.074 15.3404 17.3446C15.5903 17.8765 15.7879 18.4308 15.9306 18.9998C16.0157 19.3204 16.0934 19.6452 16.1481 19.9724C16.1673 20.0391 16.2374 20.0783 16.3054 20.0604C16.3725 20.0406 16.4118 19.9723 16.3948 19.9054H16.3948Z" fill="black"/>
<path d="M15.6463 20.1063C15.6463 20.1063 15.1844 18.0098 14.2785 16.8649C13.7073 16.1646 13.1877 16.6254 13.567 17.4224C13.9462 18.2193 14.5004 19.5362 14.5328 20.0649" fill="#FC7F3A"/>
<path d="M15.7694 20.0729C15.7054 19.7828 15.6222 19.496 15.5336 19.2125C15.3563 18.6223 15.1237 18.0496 14.8387 17.5019C14.6939 17.2103 14.5116 16.9383 14.2962 16.6926C14.1137 16.4982 13.8026 16.2906 13.5325 16.4513C13.274 16.6051 13.2832 16.9636 13.3519 17.2139C13.4073 17.3828 13.4765 17.5469 13.5588 17.7048C13.6269 17.8525 13.6933 18.001 13.7581 18.1501C13.9131 18.5069 14.0597 18.8679 14.1877 19.235C14.2797 19.499 14.3872 19.8074 14.4047 20.0649C14.4156 20.2259 14.6715 20.2271 14.6605 20.0649C14.6358 19.8267 14.5822 19.5923 14.501 19.3666C14.4026 19.0608 14.2868 18.7605 14.165 18.4631C14.0404 18.1588 13.9091 17.8573 13.7709 17.5586C13.6631 17.3254 13.4782 17.0105 13.5966 16.7481C13.6106 16.7212 13.6289 16.6967 13.651 16.6757C13.6779 16.6546 13.712 16.6443 13.7463 16.6468C13.848 16.6502 13.9606 16.7241 14.0437 16.7999C14.2691 17.0053 14.4312 17.2904 14.5768 17.5536C14.8551 18.0726 15.0822 18.6167 15.2549 19.1784C15.3566 19.4947 15.4511 19.8154 15.5228 20.1399C15.5577 20.2982 15.8044 20.2312 15.7694 20.0729L15.7694 20.0729Z" fill="black"/>
<path d="M15.1111 20.2761C14.8929 19.7914 14.6339 19.3255 14.3367 18.8834C13.288 17.2457 11.1112 19.0944 11.1112 19.0944C10.5149 19.6541 10.7468 20.3993 11.5549 19.9847C12.2977 19.6036 13.3618 18.5674 13.7247 20.1474C13.9485 21.1217 12.8505 21.5599 12.2003 20.281C12.108 20.0963 11.9042 19.9926 11.6978 20.0253L11.6869 20.0271C11.4611 20.0644 11.2948 20.2554 11.2919 20.4808C11.2821 21.1217 12.2319 22.5556 13.847 22.906L14.4865 24.9214" fill="#FC7F3A"/>
<path d="M15.2342 20.2426C15.1636 20.0726 15.0801 19.9075 14.9942 19.7446C14.8972 19.5607 14.7947 19.3797 14.6868 19.2016C14.5726 18.999 14.4437 18.8049 14.301 18.6206C14.103 18.375 13.8286 18.2002 13.52 18.1231C13.2288 18.0613 12.9267 18.069 12.6391 18.1456C12.143 18.2661 11.6789 18.5211 11.2682 18.8156C11.1823 18.8746 11.0996 18.9379 11.0204 19.0053C10.7844 19.2152 10.5746 19.5801 10.6701 19.9021C10.7669 20.2288 11.1256 20.2797 11.414 20.1813C11.7008 20.0835 11.9533 19.8968 12.2101 19.7421C12.4351 19.6066 12.6611 19.4706 12.9208 19.4294C13.0108 19.4162 13.1027 19.4266 13.1873 19.4595C13.291 19.5139 13.3753 19.5984 13.4286 19.7016C13.5195 19.8679 13.5816 20.048 13.6121 20.2344C13.6378 20.3624 13.6311 20.4946 13.5926 20.6195C13.577 20.6705 13.5531 20.7188 13.5218 20.7624C13.511 20.78 13.4979 20.7961 13.4827 20.8102C13.4742 20.8192 13.4654 20.8279 13.4564 20.8363C13.4511 20.8411 13.4203 20.8669 13.4352 20.8556C13.4158 20.8701 13.3953 20.8833 13.3739 20.8949C13.3559 20.9066 13.3361 20.9155 13.3154 20.9213C13.2691 20.9385 13.2199 20.947 13.1705 20.9465C13.0518 20.9442 12.9363 20.9092 12.8368 20.8456C12.6958 20.7561 12.5748 20.6392 12.4813 20.5021C12.3569 20.3274 12.2888 20.1143 12.103 19.9905C11.9279 19.8792 11.7075 19.8632 11.5178 19.9478C11.3265 20.0334 11.1943 20.211 11.1691 20.4165C11.1586 20.5286 11.1687 20.6417 11.199 20.7503C11.2704 21.0099 11.3866 21.2555 11.5426 21.4763C11.9537 22.0826 12.5363 22.5568 13.2182 22.8405C13.4104 22.92 13.6093 22.9826 13.8126 23.0275L13.7233 22.9395L14.2832 24.7039L14.3628 24.9549C14.4117 25.1091 14.6588 25.0433 14.6095 24.8879L14.0496 23.1235L13.97 22.8725C13.9579 22.8298 13.924 22.7964 13.8806 22.7845C13.15 22.6186 12.4929 22.2257 12.0063 21.664C11.816 21.45 11.6585 21.2097 11.5387 20.9509C11.4952 20.8537 11.4614 20.7527 11.4376 20.6491C11.4329 20.6272 11.4288 20.6052 11.4252 20.5831C11.4221 20.5637 11.4276 20.6039 11.4254 20.5848C11.4248 20.5796 11.4241 20.5744 11.4236 20.5692C11.4226 20.5574 11.4214 20.5457 11.4207 20.5339C11.4145 20.4694 11.4247 20.4044 11.4503 20.3448C11.5192 20.2031 11.6751 20.1235 11.8323 20.1497C12.047 20.1868 12.1056 20.3929 12.2082 20.5521C12.3847 20.826 12.6388 21.0914 12.9691 21.1736C13.2133 21.2396 13.4747 21.1724 13.655 20.9973C13.8483 20.8022 13.9058 20.5166 13.8718 20.2534C13.8309 19.9371 13.7122 19.5502 13.4561 19.3355C13.2563 19.1679 13.0022 19.1423 12.7545 19.2074C12.4907 19.2769 12.2493 19.4215 12.0193 19.5622C11.7813 19.7077 11.5333 19.8992 11.2569 19.9642C11.1981 19.9791 11.1369 19.9825 11.0768 19.9745C11.0632 19.9717 11.0497 19.9682 11.0365 19.9639C11.0133 19.9565 11.0283 19.9624 11.0124 19.9538C10.9935 19.946 10.9768 19.9338 10.9637 19.9182C10.9495 19.9043 10.9556 19.9107 10.9524 19.9064C10.944 19.8947 10.9364 19.8824 10.9298 19.8697C10.9195 19.8507 10.9299 19.8743 10.9226 19.8536C10.9177 19.8392 10.9135 19.8246 10.9101 19.8098C10.9022 19.7605 10.9025 19.7102 10.9111 19.661C10.9584 19.4583 11.0752 19.2779 11.2419 19.1502C11.2617 19.1345 11.2817 19.119 11.3016 19.1036C11.3191 19.09 11.2804 19.1195 11.299 19.1055C11.3053 19.1008 11.3116 19.096 11.3179 19.0913C11.3341 19.0793 11.3503 19.0673 11.3666 19.0553C11.4428 18.9999 11.5205 18.9465 11.5997 18.8952C11.808 18.7589 12.0275 18.6401 12.256 18.54C12.7301 18.3351 13.3098 18.2192 13.7773 18.4966C14.1052 18.6911 14.2909 19.0371 14.4798 19.3518C14.6495 19.6311 14.8044 19.9188 14.944 20.2138C14.958 20.2436 14.9715 20.2736 14.9849 20.3036C15.003 20.3442 14.9792 20.2896 14.9875 20.3096C15.0081 20.3752 15.077 20.4138 15.1448 20.3975C15.2127 20.3787 15.2525 20.3096 15.2342 20.2426L15.2342 20.2426Z" fill="black"/>
<path d="M36.7501 35.968C36.0785 38.7392 25.6655 36.5135 25.6655 36.5135L28.7673 25.7783C28.8752 25.1588 29.7642 24.7018 30.3554 24.742L34.3 25.0104C34.9423 25.0541 35.2595 25.3386 35.4701 26.2857C35.4701 26.2857 36.676 32.8665 36.7501 35.968Z" fill="#A8542A"/>
<path d="M29.2941 24.7957L30.0822 24.8494L31.8128 24.9672L33.5295 25.084C33.795 25.1021 34.0608 25.1171 34.326 25.1384C34.6131 25.1614 34.868 25.2567 35.0326 25.4907C35.2044 25.7349 35.2927 26.0428 35.3489 26.3313C35.3987 26.5872 35.4408 26.8449 35.4854 27.1018C35.5835 27.6662 35.6783 28.2312 35.7698 28.7967C35.8896 29.5365 36.0032 30.2771 36.1106 31.0187C36.2239 31.8065 36.3289 32.5956 36.4184 33.3864C36.499 34.0984 36.5692 34.8124 36.6054 35.5281C36.6127 35.6747 36.6183 35.8213 36.6221 35.968L36.6854 35.8593C35.9659 36.1672 35.1837 36.3399 34.4109 36.4636C33.5385 36.5969 32.6587 36.6779 31.7763 36.7061C30.9377 36.7389 30.0979 36.7383 29.2591 36.714C28.6154 36.6955 27.9723 36.6629 27.3297 36.6163C27.1299 36.6017 26.9303 36.5857 26.7308 36.568C26.6395 36.5599 26.5442 36.5416 26.4525 36.5415C26.4486 36.5413 26.4447 36.5409 26.4409 36.5403L26.5688 36.6663L26.6596 34.7213L26.7202 33.4225L26.7397 33.005C26.7414 32.9688 26.7437 32.9325 26.7448 32.8963C26.7462 32.8479 26.7509 32.896 26.742 32.9013C26.7611 32.89 26.7759 32.7931 26.7821 32.7733L26.8778 32.4676L27.1973 31.4467L28.031 28.7835C28.2038 28.2312 28.3885 27.6811 28.5499 27.1254C28.5525 27.1166 28.5554 27.1079 28.5582 27.0991C28.6068 26.9438 28.3599 26.8774 28.3115 27.0322L27.876 28.4234L27.0392 31.097L26.5061 32.8001C26.4683 32.9207 26.4812 33.062 26.4754 33.1864L26.4197 34.3814L26.315 36.6232L26.313 36.6663C26.3146 36.7352 26.3709 36.7907 26.4409 36.7923C26.6808 36.8178 26.9215 36.8372 27.1621 36.8557C27.7766 36.903 28.392 36.9371 29.0082 36.958C29.8395 36.9868 30.6719 36.9928 31.5033 36.9675C32.4009 36.9448 33.2964 36.8724 34.1858 36.7507C34.9894 36.6367 35.7963 36.4733 36.5549 36.1825C36.6422 36.149 36.7287 36.1136 36.8145 36.0768C36.8543 36.0547 36.8786 36.013 36.8779 35.9681C36.8612 35.2852 36.8022 34.6034 36.7324 33.924C36.6503 33.1244 36.5488 32.3269 36.4389 31.5306C36.3315 30.7529 36.2159 29.9763 36.092 29.2009C35.9938 28.5815 35.8917 27.9627 35.7856 27.3445C35.7276 27.0061 35.6682 26.6679 35.6075 26.3299C35.5206 25.8494 35.3458 25.2571 34.867 25.0205C34.5661 24.8718 34.2079 24.8782 33.8781 24.8558L32.3065 24.7489L30.4722 24.624L29.3494 24.5476L29.2941 24.5438C29.1298 24.5326 29.1305 24.7846 29.2941 24.7957L29.2941 24.7957Z" fill="black"/>
<path d="M25.7882 33.0986L23.3783 33.2376C21.746 33.3316 20.3157 34.3833 19.8061 35.9133C19.6276 36.4492 19.5885 36.9806 19.8385 37.4081C22.3199 37.9754 25.7761 36.8408 25.7761 36.8408" fill="#FC7F3A"/>
<path d="M25.7883 32.9727L23.8003 33.0873C23.4814 33.0972 23.1634 33.1265 22.8482 33.175C22.2345 33.2864 21.6543 33.5328 21.1508 33.8959C20.6462 34.2586 20.2325 34.7303 19.9415 35.2749C19.6158 35.8911 19.3659 36.6874 19.669 37.3569C19.7095 37.4464 19.7443 37.5165 19.8478 37.5393C19.9275 37.5568 20.0077 37.5726 20.0882 37.5865C20.2483 37.6144 20.4097 37.6359 20.5714 37.6524C20.8947 37.6844 21.2196 37.6976 21.5445 37.692C22.1866 37.6789 22.8269 37.6188 23.4599 37.5122C24.2434 37.3891 25.0165 37.2093 25.7731 36.9742C25.7855 36.9703 25.7979 36.9664 25.8103 36.9623C25.9657 36.9113 25.8991 36.6679 25.7423 36.7194C25.3176 36.8586 24.8805 36.9669 24.4445 37.0651C23.5052 37.287 22.5451 37.4125 21.5796 37.4395C21.0064 37.457 20.4332 37.4057 19.8726 37.2867L19.9491 37.3446C19.7337 36.9669 19.7665 36.5204 19.878 36.1158C19.9767 35.7622 20.129 35.4253 20.3296 35.1164C20.7089 34.5342 21.242 34.0646 21.8716 33.7579C22.3676 33.5204 22.9074 33.3847 23.4583 33.3589L24.6859 33.2882L25.7883 33.2246C25.952 33.2152 25.9531 32.9632 25.7883 32.9727H25.7883Z" fill="black"/>
<path d="M50.3393 37.8256L41.9261 50.4964L2.9043 37.4364L46.4091 37.896L50.3393 37.8256V37.8256Z" fill="#FFC41F"/>
<path d="M50.2286 37.7621L47.3861 42.0431L42.8554 48.8666L41.8155 50.4329L41.9599 50.375L40.9137 50.0248L38.0669 49.072L33.8757 47.6693L28.7649 45.9588L23.1446 44.0778L17.4711 42.1789L12.2015 40.4153L7.7306 38.919L4.52748 37.8469L3.52922 37.5128C3.36064 37.4564 3.17877 37.3683 3.00318 37.3368C2.98098 37.331 2.95922 37.3237 2.93807 37.315L2.90404 37.5624L4.28751 37.577L7.98172 37.6161L13.4044 37.6733L19.8545 37.7415L26.7875 37.8147L33.482 37.8854L39.3966 37.9479L43.8237 37.9946L46.1911 38.0196C47.3097 38.0314 48.4305 37.9857 49.5489 37.9657L50.3391 37.9516C50.5035 37.9487 50.504 37.6967 50.3391 37.6997C49.0187 37.7233 47.6964 37.7713 46.3758 37.7696C45.7912 37.7689 45.2063 37.7573 44.6217 37.7511L40.6129 37.7088L35.0313 37.6498L28.4334 37.5801L21.536 37.5073L14.8776 37.437L9.17602 37.3768L4.98603 37.3325C4.32158 37.3255 3.65633 37.3085 2.99183 37.3114C2.96258 37.3116 2.9333 37.3108 2.90405 37.3105C2.75506 37.3089 2.73672 37.5133 2.87006 37.5579L3.91628 37.9081L6.76309 38.8609L10.9542 40.2636L16.065 41.9741L21.6853 43.8551L27.3589 45.7539L32.6285 47.5176L37.0994 49.0139L40.3025 50.086C40.8097 50.2557 41.3144 50.4423 41.8268 50.5961C41.8487 50.6027 41.8702 50.6106 41.8919 50.6179C41.9478 50.6324 42.0066 50.6088 42.0364 50.56L44.8789 46.279L49.4096 39.4555L50.4495 37.8893C50.5399 37.7531 50.3185 37.6268 50.2286 37.7621Z" fill="black"/>
<path d="M43.3019 48.5331V48.5331C43.0292 47.3445 42.1238 46.4236 40.9716 46.1632L5.28174 38.095L48.0269 41.3126L43.3019 48.5331Z" fill="black" stroke="black" stroke-width="1.3457"/>
<path d="M2.9043 37.4365C3.33388 37.256 52.1684 35.2498 52.1684 35.2498L63.0963 48.5775L2.9043 37.4365Z" fill="#FFC41F"/>
<path d="M2.93816 37.5579C2.98118 37.5412 2.96012 37.5527 2.97155 37.5512C3.01826 37.5449 3.06557 37.5418 3.11252 37.5378C3.28091 37.5234 3.44969 37.513 3.61834 37.5024C4.22067 37.4645 4.82345 37.4331 5.42615 37.402C7.5102 37.2944 9.59489 37.1987 11.6796 37.1035C14.5462 36.9727 17.4129 36.8453 20.2798 36.7213C23.4855 36.5816 26.6912 36.4437 29.8971 36.3076C32.9937 36.1758 36.0904 36.0451 39.1871 35.9153C41.7266 35.8088 44.2662 35.7029 46.8057 35.5975C48.3401 35.5338 49.8744 35.4703 51.4088 35.407L51.9378 35.3852C51.9896 35.3831 52.1137 35.4018 52.1603 35.3761C52.0946 35.4123 52.082 35.2883 52.1024 35.3689C52.1161 35.4231 52.2124 35.503 52.2472 35.5455L52.8908 36.3304L58.1825 42.7842L62.7568 48.3631L63.0057 48.6666L63.1301 48.4561L61.5227 48.1585L57.1477 47.3488L50.6516 46.1464L42.751 44.6841L34.0982 43.0825L25.3644 41.4659L17.2206 39.9586L10.3176 38.6809L5.37456 37.766C4.59541 37.6218 3.81697 37.4729 3.03694 37.3333C3.00399 37.3274 2.97105 37.3211 2.93815 37.315C2.77726 37.2852 2.70831 37.528 2.87015 37.5579L4.47759 37.8555L8.8526 38.6652L15.3487 39.8676L23.2493 41.33L31.902 42.9315L40.6359 44.5481L48.7797 46.0554L55.6827 47.3331L60.6257 48.248C61.4049 48.3923 62.1833 48.5411 62.9633 48.6807C62.9963 48.6866 63.0292 48.6929 63.0621 48.699C63.1176 48.7122 63.1752 48.6879 63.2039 48.6394C63.2326 48.5908 63.2256 48.5295 63.1866 48.4885L59.7554 44.3038L54.0088 37.2952L52.3985 35.3313C52.2402 35.1382 52.1833 35.1232 51.9424 35.1331C50.7341 35.1828 49.5258 35.2327 48.3175 35.2829C45.9744 35.3799 43.6313 35.4774 41.2882 35.5754C38.2683 35.7017 35.2484 35.8288 32.2286 35.9567C28.9982 36.0936 25.7679 36.2318 22.5376 36.3714C19.5405 36.5011 16.5434 36.633 13.5465 36.7671C11.2292 36.8713 8.91207 36.9794 6.59511 37.0912C5.42549 37.1489 4.24913 37.1832 3.0825 37.2884C3.01084 37.2881 2.93945 37.297 2.87016 37.315C2.71873 37.3737 2.78468 37.6174 2.93816 37.5579Z" fill="black"/>
<path d="M33.9447 24.9862L36.4423 25.1412C37.3114 25.1951 38.0341 25.8198 38.2011 26.6614L39.8482 33.0786C40.0163 33.7335 39.8759 34.4281 39.4658 34.9696C39.0558 35.5111 38.4198 35.8419 37.7345 35.87L24.2217 36.4246V33.2103L34.993 31.8072L34.2397 27.3274" fill="#A8542A"/>
<path d="M33.9442 25.1122L35.2088 25.1907C35.6344 25.2171 36.0618 25.2344 36.4867 25.2705C36.9102 25.3096 37.3058 25.496 37.6024 25.7963C37.8435 26.0482 38.0085 26.3614 38.0788 26.7006C38.1339 26.9321 38.1972 27.162 38.2564 27.3926L38.6393 28.8843L39.097 30.6676L39.499 32.2338L39.7152 33.076C39.8818 33.7013 39.754 34.3673 39.3671 34.8897C38.9765 35.406 38.3696 35.7203 37.7163 35.7448C37.5589 35.7514 37.4016 35.7578 37.2442 35.7641L36.228 35.8058L34.7926 35.8647L33.0821 35.9349L31.2228 36.0113L29.3465 36.0883L27.5847 36.1606L26.0635 36.223L24.9276 36.2696L24.3018 36.2953L24.2212 36.2986L24.3491 36.4245V33.2103L24.2212 33.3363L24.5093 33.2987L25.2936 33.1966L26.4534 33.0455L27.8685 32.8612L29.4106 32.6603L30.9751 32.4565L32.4341 32.2664L33.6673 32.1058L34.5542 31.9903C34.6943 31.972 34.8344 31.9538 34.9744 31.9355L34.9924 31.9332C35.0319 31.932 35.0688 31.9134 35.0927 31.8824C35.1167 31.8515 35.1251 31.8115 35.1158 31.7737L34.86 30.2527L34.4556 27.8476L34.3626 27.294C34.3434 27.2272 34.2733 27.1881 34.2052 27.206C34.1382 27.2258 34.0988 27.2941 34.1159 27.3609L34.3716 28.8819L34.776 31.2871L34.8691 31.8407L34.9924 31.6813L34.7043 31.7188L33.92 31.821L32.7602 31.972L31.3451 32.1564L29.803 32.3572L28.2385 32.561L26.7795 32.7511L25.5463 32.9117L24.6594 33.0273C24.5193 33.0455 24.3793 33.0638 24.2392 33.082L24.2212 33.0844C24.1513 33.0861 24.095 33.1415 24.0933 33.2103V36.4246C24.094 36.4939 24.1508 36.5498 24.2212 36.5506L24.5601 36.5366L25.4809 36.4989L26.855 36.4425L28.5357 36.3735L30.4007 36.2969L32.3069 36.2187L34.1105 36.1447L35.6846 36.0801L36.8981 36.0303L37.6074 36.0012C38.0024 35.9956 38.3912 35.9042 38.7462 35.7334C39.5212 35.3325 40.0175 34.5521 40.0453 33.6903C40.0545 33.3445 39.9647 33.0201 39.8798 32.6896L39.5452 31.3859L39.0932 29.6251L38.6552 27.9187L38.3691 26.8038C38.3541 26.7453 38.3379 26.687 38.324 26.6283C38.2351 26.2136 38.0197 25.8357 37.7067 25.5449C37.373 25.2443 36.9483 25.0597 36.4978 25.0196C36.3544 25.0065 36.21 25.0008 36.0663 24.992L34.3256 24.8839L33.9442 24.8603C33.7798 24.8501 33.7804 25.102 33.9442 25.1122L33.9442 25.1122Z" fill="black"/>
<path d="M20.7828 36.6065C20.8233 36.4365 20.8764 36.2696 20.9418 36.1072C21.0604 35.7805 21.2391 35.4782 21.4689 35.2152C21.6018 35.0642 21.7681 34.9453 21.955 34.8676C22.0218 34.8475 22.061 34.7795 22.0443 34.7127C22.0251 34.6459 21.955 34.6067 21.887 34.6247C21.1776 34.897 20.7969 35.6657 20.5901 36.3429C20.5703 36.4078 20.5511 36.4733 20.5362 36.5396C20.5007 36.6975 20.7472 36.765 20.7829 36.6065L20.7828 36.6065Z" fill="black"/>
<path d="M21.9841 36.5294C21.9823 36.5034 21.982 36.4774 21.983 36.4514C21.9839 36.4216 21.9859 36.3918 21.9889 36.3621C21.9897 36.3536 21.9909 36.3452 21.9917 36.3367C21.9947 36.3075 21.9879 36.3583 21.9918 36.3355C21.9952 36.3163 21.998 36.297 22.0017 36.2778C22.0103 36.2335 22.0212 36.1897 22.0344 36.1466C22.0414 36.1239 22.049 36.1014 22.0573 36.0792C22.0616 36.0677 22.0661 36.0562 22.0707 36.0449C22.0715 36.043 22.0785 36.0267 22.0726 36.0401C22.0659 36.0556 22.0781 36.0283 22.0795 36.0254C22.102 35.9773 22.1279 35.9308 22.1569 35.8861C22.1646 35.8745 22.1725 35.863 22.1806 35.8516C22.1837 35.8474 22.2055 35.8184 22.1937 35.8333C22.2132 35.8086 22.2342 35.7849 22.2561 35.7622C22.3575 35.6563 22.4819 35.5743 22.6199 35.5222C22.6866 35.502 22.7258 35.4341 22.7092 35.3673C22.69 35.3005 22.6199 35.2613 22.5519 35.2793C22.2699 35.3814 22.0345 35.5798 21.8886 35.8385C21.7939 36.017 21.7394 36.2136 21.7289 36.4148C21.726 36.453 21.7258 36.4912 21.7283 36.5294C21.73 36.5982 21.7862 36.6537 21.8562 36.6553C21.9266 36.6548 21.9835 36.5987 21.9841 36.5294L21.9841 36.5294Z" fill="black"/>
<path d="M30.1832 24.7527L30.0607 25.4999C29.9532 26.1559 30.0071 26.8278 30.2178 27.459L30.6984 28.8985L32.1223 27.6062C32.6393 27.1369 33.0291 26.5477 33.256 25.8922L33.5749 24.9709L30.1832 24.7527Z" fill="white"/>
<path d="M30.0599 24.7192L29.9533 25.3691C29.8786 25.7865 29.8628 26.212 29.9062 26.6336C29.9751 27.2274 30.1929 27.7876 30.3814 28.3519L30.575 28.932C30.5879 28.9746 30.6224 29.0075 30.666 29.0188C30.7097 29.0302 30.7562 29.0183 30.7888 28.9875L32.0115 27.8778C32.2574 27.6646 32.4848 27.4316 32.6913 27.1812C33.0009 26.7838 33.2408 26.3382 33.401 25.8628L33.6982 25.0044C33.7082 24.9665 33.7 24.9262 33.6759 24.8951C33.6519 24.864 33.6146 24.8455 33.5749 24.845L32.4308 24.7713L30.6052 24.6539L30.1832 24.6268C30.0188 24.6162 30.0195 24.8681 30.1832 24.8787L31.3272 24.9523L33.1528 25.0698L33.5748 25.0969L33.4515 24.9375L33.1863 25.7036C33.0494 26.1227 32.8517 26.5201 32.5993 26.8834C32.3898 27.163 32.1506 27.4198 31.8859 27.6495L31.1586 28.3096L30.6079 28.8095L30.8216 28.865L30.4107 27.634C30.3174 27.372 30.2439 27.1035 30.1909 26.8307C30.116 26.3873 30.1161 25.9348 30.1909 25.4914L30.3065 24.7862C30.3231 24.7194 30.2839 24.6514 30.2172 24.6312C30.1492 24.6133 30.0791 24.6525 30.0599 24.7192V24.7192Z" fill="black"/>
<path d="M30.6502 28.8985L29.834 32.437Z" fill="#458DC9"/>
<path d="M30.5269 28.865L30.2517 30.0582L29.8123 31.9628L29.7107 32.4035C29.6743 32.5614 29.9208 32.6288 29.9573 32.4705L30.2326 31.2773L30.6719 29.3727L30.7736 28.932C30.81 28.7741 30.5634 28.7067 30.5269 28.865Z" fill="black"/>
<path d="M30.1245 25.1098L30.4729 23.4435L39.8225 23.0945L39.7776 24.532C39.7662 24.8964 39.6035 25.2403 39.3275 25.4832C39.0515 25.7261 38.6863 25.8469 38.3174 25.8173L31.5807 25.2764" fill="white"/>
<path d="M39.6947 23.0945L39.6644 24.0644C39.6597 24.2132 39.6551 24.362 39.6504 24.5108C39.6449 24.7415 39.5739 24.9662 39.4455 25.1593C39.1904 25.5295 38.7504 25.7329 38.2982 25.6898C38.1407 25.6774 37.9832 25.6648 37.8257 25.6519L35.6306 25.4756L33.0319 25.267L32.0812 25.1906C31.922 25.1779 31.7617 25.1584 31.602 25.1522C31.5949 25.1519 31.5878 25.151 31.5807 25.1505C31.4166 25.1373 31.4175 25.3893 31.5807 25.4024L32.8004 25.5003L35.3815 25.7075L37.6975 25.8935L38.2657 25.9391C38.6777 25.9788 39.0883 25.8511 39.4025 25.5857C39.6354 25.3853 39.7982 25.1178 39.8679 24.8212C39.8978 24.6657 39.9123 24.5077 39.9112 24.3494L39.9477 23.183L39.9504 23.0945C39.9555 22.9323 39.6997 22.9325 39.6946 23.0945L39.6947 23.0945Z" fill="black"/>
<path d="M30.2478 25.1433L30.5531 23.6826L30.5961 23.477L30.4728 23.5695L31.1534 23.5434L32.7795 23.481L34.7542 23.4052L36.4549 23.34C36.7312 23.3293 37.0092 23.3266 37.2851 23.3081C37.2889 23.3079 37.2928 23.3078 37.2967 23.3077C37.4607 23.3014 37.4616 23.0494 37.2967 23.0558L36.6161 23.0819L34.99 23.1443L33.0153 23.2201L31.3146 23.2853C31.0383 23.2959 30.7603 23.2986 30.4844 23.3172C30.4805 23.3174 30.4767 23.3175 30.4728 23.3176C30.4155 23.3184 30.3655 23.3559 30.3495 23.4101L30.0441 24.8707L30.0011 25.0764C29.968 25.2346 30.2145 25.3022 30.2478 25.1433V25.1433Z" fill="black"/>
<path d="M41.8166 24.84L39.7661 24.6698L39.8225 23.0944C39.8225 23.0944 41.4336 24.7096 41.8166 24.84Z" fill="black" stroke="black" stroke-width="1.3457"/>
<ellipse cx="31.3148" cy="29.9895" rx="0.221558" ry="0.218201" fill="black" stroke="black" stroke-width="1.3457"/>
<ellipse cx="30.8719" cy="31.6914" rx="0.221558" ry="0.218201" fill="black" stroke="black" stroke-width="1.3457"/>
<path d="M14.2295 27.1918C14.5823 27.1792 14.9335 27.1379 15.2794 27.0683C16.0809 26.9238 16.8571 26.666 17.5839 26.3031C18.092 26.0477 18.567 25.7329 18.9986 25.3655C19.1232 25.2591 18.9417 25.0816 18.8177 25.1873C18.1052 25.7838 17.2815 26.2378 16.3926 26.5239C16.0423 26.6396 15.6849 26.7332 15.3226 26.8043C15.0751 26.854 14.8252 26.8913 14.5739 26.9163C14.4596 26.9275 14.3444 26.9379 14.2295 26.9399C14.0651 26.9427 14.0645 27.1946 14.2295 27.1918H14.2295Z" fill="black"/>
<path d="M25.6816 33.0877L25.6873 34.212L25.6964 36.0135L25.6985 36.4258C25.6993 36.5879 25.9551 36.5882 25.9543 36.4258L25.9486 35.3015L25.9395 33.5L25.9374 33.0877C25.9366 32.9256 25.6808 32.9253 25.6816 33.0877V33.0877Z" fill="black"/>
<path d="M33.1167 19.757C33.1167 19.757 32.9888 22.738 30.8572 22.738C28.6403 22.864 28.9387 20.0928 28.9387 20.0928C28.9387 20.0928 29.1093 20.5127 29.8766 20.0509C30.7719 19.757 31.454 20.7227 31.7951 20.6807C32.0971 20.6608 32.3135 20.3882 32.4578 20.106C32.6097 19.8043 32.6922 19.4734 32.6994 19.1368L32.733 17.9095" fill="black"/>
<path d="M32.9891 19.757C32.985 19.8507 32.9743 19.9444 32.9626 20.0374C32.9612 20.0481 32.9598 20.0588 32.9584 20.0695C32.9543 20.1013 32.962 20.0452 32.9573 20.0779C32.9536 20.1033 32.9499 20.1286 32.946 20.154C32.9375 20.2083 32.9283 20.2626 32.9182 20.3167C32.8949 20.4418 32.8671 20.5659 32.835 20.6892C32.6843 21.2636 32.4352 21.8373 31.9679 22.2277C31.7198 22.4327 31.4162 22.5618 31.0946 22.5992C30.745 22.6389 30.3506 22.6279 30.0382 22.4899C29.7787 22.3745 29.5616 22.1832 29.4162 21.9421C29.2762 21.7104 29.1792 21.456 29.1297 21.1908C29.1157 21.125 29.1037 21.0588 29.0937 20.9922C29.0865 20.9445 29.0814 20.9053 29.0744 20.8355C29.0632 20.7244 29.0565 20.6131 29.0544 20.5014C29.0517 20.371 29.064 20.2418 29.0651 20.1118C29.0651 20.1056 29.0662 20.0991 29.0669 20.0929L28.8156 20.1264C28.9576 20.4682 29.3954 20.4145 29.6754 20.2963C29.7531 20.263 29.8288 20.2252 29.9019 20.1829C29.9657 20.1513 30.0352 20.1324 30.1064 20.1272C30.2354 20.1131 30.3659 20.1233 30.4909 20.1575C30.7256 20.2301 30.9461 20.3411 31.1433 20.4859C31.3043 20.594 31.4662 20.7296 31.6548 20.7887C31.9177 20.8711 32.1954 20.687 32.3551 20.4957C32.7139 20.0657 32.8171 19.5167 32.832 18.976L32.8612 17.9096C32.8656 17.7474 32.6099 17.7475 32.6054 17.9096L32.5812 18.7932C32.578 18.9069 32.5754 19.0208 32.5718 19.1345C32.5646 19.4656 32.4804 19.7907 32.3255 20.0847C32.2099 20.2986 32.0333 20.5487 31.7619 20.5558C31.7333 20.5566 31.7832 20.5604 31.7649 20.5565C31.7572 20.5549 31.7493 20.5538 31.7418 20.5514C31.7272 20.5467 31.7127 20.5425 31.6983 20.5372C31.6898 20.5326 31.6811 20.5285 31.6723 20.5249C31.6518 20.5148 31.6318 20.5038 31.612 20.4924C31.5284 20.4444 31.4493 20.389 31.3698 20.3347C30.9603 20.0548 30.5084 19.7956 29.9901 19.8918C29.8082 19.9255 29.6666 20.0391 29.4936 20.0976C29.4389 20.1169 29.3825 20.1307 29.3251 20.1388C29.2989 20.1415 29.2725 20.1424 29.2462 20.1414C29.2375 20.141 29.2289 20.1405 29.2202 20.1398C29.1882 20.137 29.2336 20.1434 29.2065 20.1376C29.1855 20.1331 29.1648 20.1274 29.1446 20.1203C29.1729 20.1303 29.1337 20.1147 29.1244 20.1094C29.1183 20.1059 29.1125 20.1017 29.1064 20.0984C29.0818 20.0849 29.114 20.1057 29.1068 20.0995C29.0971 20.0911 29.0878 20.0825 29.0785 20.0737C29.0644 20.0603 29.0597 20.0478 29.0757 20.0726C29.0709 20.0652 29.0657 20.0574 29.0605 20.0503C29.0518 20.0386 29.038 20.001 29.0623 20.0594C29.0435 20.0006 28.9844 19.9637 28.9223 19.9719C28.8603 19.9802 28.8133 20.0313 28.811 20.0929C28.7805 20.4288 28.7947 20.7672 28.8534 21.0995C28.9485 21.6828 29.2011 22.2799 29.7247 22.6093C30.0423 22.8091 30.4268 22.8795 30.7993 22.8667C31.1908 22.8531 31.5608 22.7914 31.8995 22.5856C32.4759 22.2356 32.8144 21.6153 33.012 20.9959C33.0917 20.744 33.1518 20.4865 33.1919 20.2256C33.2189 20.0774 33.2362 19.9277 33.2438 19.7773C33.2439 19.7705 33.2446 19.7637 33.2449 19.757C33.252 19.5949 32.9961 19.5952 32.9891 19.757L32.9891 19.757Z" fill="black"/>
<path d="M30.1688 20.8442C30.3263 20.8773 30.4907 20.8474 30.6258 20.7611C30.6897 20.717 30.7418 20.6584 30.7778 20.5902C30.8135 20.5301 30.7929 20.453 30.7319 20.4179C30.6709 20.3828 30.5926 20.403 30.5569 20.4631C30.5514 20.474 30.5454 20.4847 30.5389 20.495C30.5352 20.5009 30.5313 20.5064 30.5274 20.5121C30.5131 20.5329 30.5438 20.4932 30.5316 20.5069C30.5243 20.5151 30.5171 20.5233 30.5092 20.5311C30.5039 20.5362 30.483 20.5488 30.4812 20.5555C30.481 20.5562 30.5055 20.538 30.4967 20.5436C30.4945 20.545 30.4925 20.5466 30.4904 20.548C30.4861 20.5509 30.4819 20.5537 30.4775 20.5564C30.4676 20.5626 30.4574 20.5683 30.4469 20.5736C30.4425 20.5758 30.438 20.5778 30.4336 20.5799C30.4161 20.5884 30.4642 20.5681 30.4462 20.5748C30.4357 20.5787 30.4252 20.5825 30.4146 20.5858C30.3963 20.5914 30.3777 20.5959 30.3589 20.5992C30.3538 20.6001 30.3487 20.6008 30.3437 20.6017C30.325 20.6052 30.3792 20.5977 30.3607 20.5995C30.3518 20.6003 30.3429 20.6013 30.334 20.602C30.3047 20.604 30.2753 20.604 30.2459 20.6018C30.24 20.6014 30.234 20.6008 30.2281 20.6002C30.2258 20.6 30.2235 20.5997 30.2212 20.5994C30.2301 20.6011 30.2389 20.6022 30.2479 20.603C30.2442 20.6022 30.2404 20.6019 30.2367 20.6012C30.2034 20.5932 30.1682 20.5977 30.1381 20.6139C30.0937 20.6395 30.0691 20.6888 30.0758 20.7391C30.0825 20.7893 30.1191 20.8307 30.1687 20.8442L30.1688 20.8442Z" fill="white"/>
<path d="M35.1684 22.3449C34.6653 22.4683 34.146 22.516 33.6284 22.4861C33.6243 22.4858 33.8182 22.5021 33.8162 22.4987L33.6284 22.4861C32.9945 21.416 32.8015 20.2316 32.702 18.9966L32.6108 17.8656L28.8399 17.2961C28.6268 17.2616 28.5639 17.0092 28.7422 16.9042L29.024 16.8179C29.3068 16.6512 29.2889 16.3483 29.4077 16.0621C30.1751 14.2147 31.3574 13.9043 32.7153 14.1214C32.7153 14.1214 35.3378 14.5745 35.6598 16.1604C35.8535 17.1144 35.6477 19.0357 35.453 20.4154C35.4123 20.7359 35.4708 21.0609 35.6209 21.3481C35.7175 21.5372 35.7227 21.759 35.635 21.9523C35.5473 22.1456 35.3759 22.2897 35.1684 22.3449Z" fill="#EA2F2F"/>
<path d="M35.1347 22.2234C34.6435 22.349 34.1348 22.3952 33.6286 22.3602C33.4636 22.3482 33.4664 22.5975 33.6286 22.6121C33.7015 22.6277 33.7766 22.6304 33.8505 22.6201C33.9104 22.6018 33.9482 22.5435 33.9398 22.4822C33.9314 22.421 33.8792 22.3746 33.8165 22.3727L33.6286 22.3602L33.7391 22.4226C33.3009 21.6783 33.0678 20.8466 32.9407 20.0001C32.8611 19.4698 32.8251 18.9343 32.7821 18.4003L32.739 17.8656C32.7381 17.8092 32.7 17.76 32.6451 17.7442L31.6628 17.5958L29.8425 17.3209C29.5179 17.2719 29.1861 17.2381 28.8643 17.1727C28.8034 17.1603 28.7579 17.1138 28.7665 17.0682C28.7687 17.0566 28.7968 17.0118 28.7775 17.0253C28.799 17.0155 28.8217 17.0085 28.8451 17.0046C28.9109 16.9845 28.9774 16.9659 29.0427 16.9441C29.1313 16.9095 29.2083 16.8511 29.2649 16.7755C29.4087 16.5972 29.4333 16.3691 29.5067 16.1602C29.5943 15.9245 29.7049 15.6976 29.837 15.4829C30.0319 15.1362 30.299 14.8339 30.6208 14.5959C30.8972 14.4041 31.2141 14.2764 31.5478 14.2226C32.008 14.1552 32.4774 14.18 32.9277 14.2957C33.4602 14.4157 33.9716 14.613 34.4452 14.881C34.7277 15.0392 34.9801 15.2445 35.1912 15.4877C35.3926 15.7321 35.5211 16.0269 35.5621 16.339C35.6127 16.7467 35.6264 17.158 35.603 17.5681C35.5862 18.0718 35.5443 18.5746 35.4917 19.0758C35.4651 19.3286 35.4357 19.5812 35.4034 19.8334C35.373 20.0729 35.3223 20.3164 35.3123 20.5575C35.3056 20.8221 35.3596 21.0848 35.4705 21.3259C35.5188 21.4155 35.5513 21.5124 35.5665 21.6127C35.5745 21.7054 35.5606 21.7986 35.5259 21.8851C35.4565 22.052 35.3117 22.1773 35.1347 22.2235C34.9764 22.267 35.0436 22.5101 35.2027 22.4664C35.4201 22.406 35.6043 22.263 35.7146 22.0688C35.8249 21.8745 35.8521 21.6451 35.7905 21.431C35.7568 21.318 35.6943 21.2155 35.6549 21.1043C35.6099 20.9811 35.5816 20.8527 35.5708 20.7222C35.5522 20.4663 35.6108 20.2065 35.6438 19.9535C35.7748 18.9465 35.8925 17.9225 35.8619 16.9056C35.8506 16.5291 35.8256 16.137 35.6735 15.7867C35.5317 15.4779 35.3182 15.2061 35.0502 14.9934C34.5529 14.584 33.9402 14.3219 33.3235 14.1403C32.9098 14.0128 32.4798 13.9438 32.0464 13.9355C31.6839 13.927 31.3233 13.9884 30.9847 14.1162C30.6254 14.2604 30.3044 14.4839 30.0464 14.7693C29.7234 15.139 29.4674 15.5608 29.2899 16.0161C29.2485 16.1252 29.2137 16.2365 29.1855 16.3496C29.1646 16.4512 29.1206 16.547 29.057 16.6296C29.0191 16.6794 28.9633 16.7131 28.901 16.7238C28.8384 16.7429 28.7743 16.7597 28.7125 16.7815C28.5022 16.8557 28.4572 17.1258 28.5867 17.2874C28.6488 17.3618 28.7376 17.41 28.8346 17.4219C28.9856 17.4456 29.1369 17.4675 29.288 17.4903L31.0874 17.7621L32.5013 17.9756L32.5771 17.9871L32.4832 17.8656C32.5134 18.2399 32.5435 18.6141 32.5737 18.9883C32.6461 19.8836 32.766 20.7867 33.0832 21.6336C33.1754 21.8816 33.2844 22.1232 33.4093 22.3568C33.4419 22.4174 33.4737 22.4799 33.5111 22.5377C33.5382 22.5841 33.5883 22.6127 33.6425 22.613C33.7004 22.618 33.7585 22.6208 33.8165 22.6246L33.7825 22.3772C33.8178 22.3664 33.8091 22.3734 33.7784 22.3716C33.757 22.3704 33.7356 22.3687 33.7143 22.367C33.6857 22.3649 33.6572 22.3627 33.6286 22.3602V22.6121C34.1579 22.6476 34.6894 22.5983 35.2027 22.4664C35.3619 22.4257 35.2944 22.1826 35.1347 22.2234Z" fill="black"/>
<path d="M31.2428 15.6167C30.9208 15.1636 30.2767 15.3448 30.2767 15.3448L29.9546 15.4355V16.1604C29.9546 16.1604 30.7367 16.052 31.1508 16.4323C31.5189 16.5133 31.4556 15.9161 31.2428 15.6167Z" fill="white"/>
<path d="M31.3532 15.5531C31.0878 15.189 30.6124 15.1193 30.1967 15.2363L29.9206 15.314C29.8656 15.3298 29.8275 15.3791 29.8267 15.4354V16.1604C29.8275 16.1994 29.8464 16.2359 29.8779 16.2596C29.9094 16.2832 29.9501 16.2914 29.9886 16.2819C29.9255 16.2905 29.9611 16.2853 29.976 16.2838C29.996 16.2819 30.016 16.2799 30.0361 16.2784C30.0996 16.2736 30.1633 16.2717 30.227 16.2721C30.409 16.2697 30.5901 16.2971 30.7629 16.3534C30.8514 16.3822 30.9348 16.4246 31.01 16.4788C31.051 16.5196 31.1029 16.548 31.1597 16.5607C31.2062 16.5683 31.2538 16.5665 31.2996 16.5552C31.482 16.505 31.5441 16.3165 31.5426 16.1478C31.5391 15.9357 31.4733 15.7292 31.3533 15.5531C31.3165 15.4945 31.2395 15.4746 31.1783 15.5079C31.1178 15.5434 31.0974 15.6201 31.1324 15.6802C31.2256 15.8147 31.279 15.972 31.2866 16.1347C31.2871 16.1539 31.2869 16.1731 31.2857 16.1923C31.2852 16.2004 31.2845 16.2086 31.2836 16.2167C31.2819 16.2318 31.2876 16.2007 31.282 16.224C31.2782 16.2402 31.274 16.256 31.2691 16.2719C31.2637 16.2893 31.2831 16.248 31.268 16.2752C31.2648 16.2809 31.2612 16.2866 31.2583 16.2924C31.245 16.3189 31.2684 16.2811 31.2584 16.2938C31.2533 16.2996 31.2478 16.3051 31.2419 16.3102C31.2623 16.2913 31.2258 16.3187 31.2457 16.308C31.2396 16.3106 31.2332 16.3124 31.2266 16.3134C31.2125 16.3161 31.2491 16.3141 31.224 16.3136C31.2163 16.3135 31.2087 16.3137 31.201 16.3134C31.1645 16.3119 31.2239 16.3187 31.1848 16.3108L31.2412 16.3432C30.8978 16.0344 30.3657 15.978 29.9206 16.0389L30.0825 16.1604V15.4355L29.9886 15.5569C30.1309 15.5108 30.2758 15.4732 30.4227 15.4441C30.4434 15.4409 30.3972 15.4463 30.4352 15.4427C30.4491 15.4414 30.4629 15.4399 30.4768 15.4388C30.5076 15.4364 30.5385 15.4352 30.5694 15.435C30.6334 15.4338 30.6973 15.4397 30.7599 15.4527C30.9089 15.4791 31.0422 15.5605 31.1324 15.6803C31.1693 15.7388 31.2461 15.7586 31.3074 15.7255C31.3679 15.69 31.3884 15.6133 31.3532 15.5531Z" fill="black"/>
<ellipse cx="34.7042" cy="19.0136" rx="1.05329" ry="1.03732" fill="#EA2F2F"/>
<path d="M35.6298 19.0136C35.6296 19.3977 35.3847 19.7404 35.0177 19.8705C34.6506 20.0005 34.2402 19.8898 33.9916 19.5938C33.743 19.2978 33.7095 18.88 33.908 18.5493C34.1065 18.2186 34.4942 18.046 34.8774 18.1178C35.3123 18.2026 35.6267 18.5769 35.6298 19.0136C35.6315 19.1756 35.8873 19.176 35.8856 19.0136C35.8857 18.5221 35.5723 18.0836 35.1024 17.9179C34.6326 17.7523 34.1078 17.8953 33.7912 18.2751C33.4746 18.655 33.4345 19.1898 33.691 19.6114C33.9476 20.0329 34.4454 20.2502 34.9348 20.1543C35.4841 20.0406 35.8794 19.5663 35.8856 19.0136C35.8873 18.8514 35.6315 18.8512 35.6298 19.0136Z" fill="black"/>
<ellipse cx="35.0253" cy="19.1173" rx="0.60685" ry="0.597654" fill="#EA2F2F"/>
<path d="M35.5044 19.1173C35.5041 19.3154 35.3782 19.4922 35.1892 19.5598C35.0001 19.6275 34.7883 19.5716 34.659 19.4199C34.5296 19.2682 34.5103 19.0531 34.6107 18.8814C34.711 18.7097 34.9096 18.6181 35.1078 18.6521C35.3364 18.693 35.503 18.8885 35.5044 19.1173C35.5067 19.2793 35.7625 19.2798 35.7602 19.1173C35.7569 18.8144 35.565 18.5445 35.2771 18.4378C34.9853 18.3333 34.6583 18.4207 34.4602 18.656C34.262 18.8914 34.2354 19.224 34.3938 19.487C34.5629 19.7669 34.9011 19.901 35.22 19.8147C35.5388 19.7284 35.76 19.443 35.7602 19.1173C35.7625 18.9552 35.5067 18.9551 35.5044 19.1173Z" fill="black"/>
<path d="M32.2552 15.4487L36.0886 16.6037C36.2726 16.6727 36.3829 16.8586 36.3536 17.0503V17.0503C36.3262 17.2745 36.1373 17.432 35.9318 17.402L31.9331 16.7035" fill="white"/>
<path d="M32.221 15.5702L33.6581 16.0032L35.7648 16.6379C35.9458 16.6924 36.1818 16.7167 36.2237 16.9379C36.2285 16.9674 36.2298 16.9974 36.2277 17.0273C36.2249 17.0968 36.2327 17.0119 36.2247 17.0499C36.2212 17.0677 36.2166 17.0854 36.2109 17.1026C36.1927 17.1559 36.1586 17.2026 36.1131 17.2365C36.0665 17.2695 36.0091 17.2845 35.9521 17.2784C35.9619 17.2791 35.9704 17.281 35.9576 17.2792C35.8996 17.2708 35.8419 17.259 35.7842 17.2489L33.733 16.8906C33.1543 16.7895 32.576 16.6853 31.9967 16.5872C31.9867 16.5856 31.9768 16.5838 31.9669 16.5821C31.899 16.5656 31.83 16.6042 31.8096 16.67C31.7914 16.737 31.8312 16.806 31.8989 16.825L33.4422 17.0946L35.6446 17.4793C35.72 17.4925 35.7953 17.506 35.8707 17.5188C36.044 17.5552 36.2238 17.498 36.3427 17.3687C36.4478 17.2492 36.4972 17.0918 36.4791 16.9347C36.461 16.7777 36.377 16.6352 36.2474 16.5419C36.181 16.5024 36.1088 16.4733 36.0334 16.4554L34.0998 15.8729L32.3197 15.3366L32.289 15.3273C32.1312 15.2798 32.0638 15.5229 32.221 15.5702V15.5702Z" fill="black"/>
<ellipse cx="32.0036" cy="15.9804" rx="0.987964" ry="0.97301" fill="#458DC9"/>
<path d="M32.8636 15.9804C32.8633 16.3373 32.6358 16.6558 32.2948 16.7767C31.9537 16.8976 31.5724 16.7949 31.3412 16.5199C31.11 16.245 31.0787 15.8568 31.2629 15.5494C31.4471 15.2419 31.8072 15.0812 32.1634 15.1476C32.568 15.2262 32.8606 15.5743 32.8636 15.9804C32.8654 16.1424 33.1212 16.1428 33.1194 15.9804C33.1195 15.5161 32.8234 15.1017 32.3796 14.9452C31.9357 14.7886 31.4399 14.9236 31.1407 15.2825C30.8415 15.6414 30.8036 16.1466 31.0459 16.5449C31.2882 16.9432 31.7585 17.1486 32.2209 17.0581C32.7399 16.9506 33.1134 16.5026 33.1194 15.9804C33.1212 15.8182 32.8654 15.8181 32.8636 15.9804Z" fill="black"/>
<path d="M32.8636 15.9804C32.8633 16.3373 32.6358 16.6558 32.2948 16.7767C31.9537 16.8976 31.5724 16.7949 31.3412 16.5199C31.11 16.245 31.0787 15.8568 31.2629 15.5494C31.4471 15.2419 31.8072 15.0812 32.1634 15.1476C32.568 15.2262 32.8606 15.5743 32.8636 15.9804C32.8654 16.1424 33.1212 16.1428 33.1194 15.9804C33.1195 15.5161 32.8234 15.1017 32.3796 14.9452C31.9357 14.7886 31.4399 14.9236 31.1407 15.2825C30.8415 15.6414 30.8036 16.1466 31.0459 16.5449C31.2882 16.9432 31.7585 17.1486 32.2209 17.0581C32.7399 16.9506 33.1134 16.5026 33.1194 15.9804C33.1212 15.8182 32.8654 15.8181 32.8636 15.9804Z" fill="black"/>
<ellipse cx="29.3556" cy="15.4545" rx="0.964979" ry="0.950358" fill="#458DC9"/>
<ellipse cx="29.0794" cy="15.3186" rx="0.254243" ry="0.250404" fill="white"/>
<ellipse cx="31.6561" cy="15.8623" rx="0.254259" ry="0.250406" fill="white"/>
<path d="M30.1925 15.4545C30.1922 15.8024 29.9703 16.1127 29.6377 16.23C29.3052 16.3473 28.9337 16.2464 28.7092 15.9778C28.4848 15.7092 28.4557 15.3308 28.6365 15.0319C28.8173 14.7331 29.1692 14.5783 29.5158 14.6449C29.9074 14.7232 30.1898 15.061 30.1925 15.4545C30.1943 15.6165 30.4501 15.617 30.4482 15.4545C30.4484 14.9994 30.1578 14.5933 29.7225 14.4404C29.2872 14.2874 28.8013 14.4206 28.5088 14.7731C28.2164 15.1256 28.1807 15.6211 28.4196 16.0107C28.6585 16.4003 29.1205 16.5999 29.5733 16.509C30.0792 16.4018 30.4423 15.9641 30.4482 15.4545C30.4501 15.2924 30.1943 15.2923 30.1925 15.4545Z" fill="black"/>
<path d="M35.4801 20.9624C35.4801 20.9624 35.246 21.0994 34.6938 21.1448Z" fill="white"/>
<path d="M35.4154 20.8537C35.4011 20.8617 35.3863 20.869 35.3711 20.8754C35.3512 20.8842 35.3482 20.8842 35.373 20.8749C35.3627 20.8788 35.3525 20.8831 35.3422 20.887C35.3151 20.8972 35.2876 20.9065 35.2599 20.9151C35.1824 20.9391 35.1035 20.9588 35.0238 20.9741C34.9148 20.9959 34.8046 21.0108 34.6938 21.0188C34.6481 21.0188 34.6059 21.0428 34.5831 21.0818C34.5602 21.1208 34.5602 21.1688 34.5831 21.2077C34.6059 21.2467 34.6481 21.2707 34.6938 21.2707C34.9088 21.2564 35.1215 21.2186 35.3279 21.1581C35.4032 21.1371 35.4759 21.108 35.5446 21.0712C35.6056 21.0361 35.6261 20.9589 35.5905 20.8989C35.5548 20.8388 35.4765 20.8186 35.4155 20.8537H35.4154Z" fill="black"/>
<path d="M31.6323 17.7178L33.3726 17.9935Z" fill="#EA2F2F"/>
<path d="M31.5981 17.8393L33.12 18.0804L33.3385 18.115C33.4063 18.1313 33.4753 18.0927 33.4958 18.027C33.514 17.96 33.4742 17.891 33.4065 17.872L31.8846 17.6309L31.6661 17.5963C31.5983 17.58 31.5293 17.6186 31.5088 17.6843C31.4906 17.7513 31.5304 17.8203 31.5981 17.8393H31.5981Z" fill="black"/>
<path d="M31.0788 18.6096C31.0807 18.6087 31.0826 18.6079 31.0845 18.607C31.1077 18.5964 31.0522 18.6192 31.0723 18.612C31.0925 18.6048 31.1124 18.5971 31.1329 18.5907C31.1633 18.5813 31.1941 18.5734 31.2252 18.5669C31.243 18.5632 31.2609 18.5603 31.2788 18.5572C31.3132 18.5513 31.2513 18.5593 31.2873 18.5561C31.2985 18.5551 31.3097 18.5538 31.3209 18.553C31.3656 18.5495 31.4105 18.5491 31.4553 18.5517C31.5036 18.5539 31.5514 18.5617 31.5979 18.5747C31.7151 18.6063 31.8245 18.6612 31.9193 18.736C31.9803 18.7707 32.0584 18.7505 32.0943 18.6908C32.1281 18.6305 32.1079 18.5547 32.0484 18.5185C31.7338 18.2801 31.3115 18.2315 30.9497 18.3921C30.8892 18.4277 30.8688 18.5043 30.9038 18.5645C30.9404 18.6233 31.0176 18.6433 31.0788 18.6097L31.0788 18.6096Z" fill="black"/>
<path d="M29.3292 18.3592C29.6481 18.2627 30.1406 18.3399 30.1906 18.7328C30.2137 18.9145 30.1102 19.1016 30.0093 19.2461C29.9364 19.3476 29.8518 19.4405 29.7572 19.5228C29.7057 19.5687 29.6497 19.6024 29.6283 19.6706C29.6151 19.7123 29.6093 19.7559 29.6114 19.7996C29.6259 20.0516 29.914 20.0935 30.1166 20.0966C30.2813 20.0991 30.2813 19.8472 30.1166 19.8447C30.0332 19.8494 29.9498 19.8346 29.8733 19.8015C29.8703 19.8001 29.868 19.7976 29.8668 19.7945C29.8663 19.7698 29.8707 19.7452 29.88 19.7221L29.8471 19.7777C30.1329 19.5459 30.4239 19.2042 30.4479 18.8224C30.4564 18.6352 30.3886 18.4524 30.2595 18.3147C30.118 18.1615 29.9263 18.1032 29.7229 18.0832C29.5682 18.0647 29.4115 18.076 29.2612 18.1163C29.1043 18.1637 29.1712 18.407 29.3292 18.3592L29.3292 18.3592Z" fill="black"/>
<ellipse cx="29.6241" cy="18.909" rx="0.175862" ry="0.173198" fill="black"/>
<path d="M29.7365 18.915C29.7353 18.9229 29.7337 18.9307 29.7316 18.9384C29.7304 18.943 29.7287 18.9474 29.7273 18.9519C29.7234 18.9635 29.7283 18.9508 29.7283 18.9497C29.726 18.9571 29.7222 18.9639 29.7172 18.9699C29.7149 18.9738 29.7123 18.9776 29.7093 18.9811C29.7164 18.9739 29.7125 18.9769 29.7075 18.9822C29.7041 18.9859 29.6959 18.9963 29.6909 18.9977C29.7013 18.9948 29.6967 18.9938 29.691 18.9974C29.6878 18.9994 29.6847 19.0015 29.6814 19.0035C29.6781 19.0054 29.6747 19.007 29.6714 19.0089C29.6677 19.011 29.6596 19.0172 29.672 19.0091C29.6637 19.0132 29.6547 19.0159 29.6455 19.0172C29.6425 19.0182 29.6394 19.0188 29.6363 19.019L29.644 19.0181C29.6408 19.0184 29.6377 19.0187 29.6345 19.0189C29.6265 19.0194 29.6185 19.0189 29.6105 19.0187C29.6062 19.0186 29.5999 19.0203 29.6128 19.0193C29.6079 19.019 29.6031 19.018 29.5985 19.0164C29.5954 19.0156 29.5923 19.0148 29.5893 19.0139C29.5874 19.0133 29.5703 19.0065 29.5791 19.0106C29.5885 19.015 29.5747 19.0082 29.574 19.0079C29.5706 19.0061 29.5673 19.0042 29.564 19.0022C29.5606 19.0002 29.5575 18.998 29.5543 18.9959C29.5424 18.9883 29.5595 19.0027 29.5546 18.996C29.5499 18.991 29.5449 18.9863 29.5397 18.9819C29.5372 18.9792 29.5261 18.9701 29.538 18.9808C29.535 18.9773 29.5324 18.9736 29.5302 18.9696C29.5277 18.9656 29.5191 18.9549 29.5193 18.9498L29.5221 18.9565C29.5209 18.9537 29.5199 18.9508 29.5189 18.948C29.5179 18.9451 29.517 18.9422 29.5161 18.9392C29.5149 18.9348 29.514 18.9303 29.5129 18.9259C29.5118 18.9216 29.5084 18.9165 29.513 18.9289C29.5111 18.9196 29.5107 18.91 29.512 18.9007C29.5121 18.8999 29.5135 18.8842 29.5123 18.8946C29.511 18.9051 29.5134 18.8896 29.5136 18.8888C29.5153 18.881 29.5178 18.8736 29.5203 18.8661C29.5241 18.8545 29.5193 18.8672 29.5192 18.8683C29.5206 18.8639 29.5228 18.8597 29.5256 18.856C29.5271 18.8533 29.5287 18.8507 29.5303 18.8481C29.532 18.8455 29.5337 18.843 29.5355 18.8406C29.5396 18.835 29.5391 18.8357 29.5339 18.8425C29.5351 18.8373 29.5459 18.8297 29.5498 18.8262C29.5513 18.8248 29.5551 18.8206 29.5567 18.8202L29.5509 18.8245C29.5534 18.8227 29.5559 18.821 29.5584 18.8193C29.5641 18.8156 29.5702 18.8125 29.5762 18.8091C29.5799 18.8069 29.5879 18.8008 29.5756 18.8088C29.5797 18.8068 29.5841 18.8052 29.5886 18.8043C29.5934 18.8028 29.6064 18.7971 29.6113 18.7989L29.6036 18.7999C29.6067 18.7995 29.6099 18.7992 29.613 18.799C29.6162 18.7989 29.6194 18.7988 29.6226 18.7987C29.6274 18.7987 29.6322 18.7991 29.6371 18.7992C29.6495 18.7997 29.6362 18.7986 29.6347 18.7987C29.6444 18.7993 29.654 18.8016 29.6628 18.8055C29.6637 18.8058 29.6778 18.8117 29.6684 18.8074C29.6595 18.8032 29.6761 18.8115 29.6776 18.8123C29.6803 18.8138 29.683 18.8154 29.6856 18.817C29.6882 18.8186 29.6908 18.8203 29.6933 18.8221C29.6989 18.8261 29.6982 18.8256 29.6913 18.8205C29.6974 18.8218 29.7051 18.8336 29.7094 18.8378C29.7122 18.8405 29.7203 18.8474 29.7095 18.8372C29.7126 18.8406 29.7152 18.8444 29.7173 18.8484C29.7198 18.8522 29.7221 18.8561 29.7242 18.8601C29.726 18.8635 29.7341 18.8744 29.7255 18.8615C29.7296 18.8697 29.7324 18.8785 29.7337 18.8876C29.7347 18.8905 29.7353 18.8936 29.7355 18.8967C29.7344 18.8875 29.7343 18.8866 29.735 18.8937C29.7353 18.8968 29.7355 18.9 29.7356 18.9031C29.7359 18.9127 29.7354 18.9222 29.7342 18.9317C29.7342 18.9665 29.7628 18.9946 29.7981 18.9947C29.833 18.9937 29.8611 18.9661 29.8621 18.9317C29.8715 18.8365 29.8217 18.7451 29.736 18.7003C29.6451 18.6542 29.5346 18.6689 29.4593 18.7371C29.3832 18.8075 29.3622 18.9184 29.4074 19.0112C29.4525 19.1039 29.5535 19.1572 29.6569 19.1428C29.7603 19.1285 29.8424 19.0498 29.8598 18.9484C29.8682 18.915 29.8485 18.881 29.8151 18.871C29.7811 18.8621 29.7461 18.8817 29.7365 18.915Z" fill="black"/>
<path d="M31.0496 19.11C31.0709 19.0996 31.0269 19.1189 31.032 19.1171C31.0418 19.1136 31.0514 19.1099 31.0614 19.1068C31.0773 19.1019 31.0936 19.0978 31.11 19.0946C31.1168 19.0932 31.1497 19.0884 31.123 19.0919C31.0969 19.0953 31.1192 19.0925 31.1249 19.0919C31.1307 19.0914 31.1363 19.0909 31.142 19.0906C31.166 19.0891 31.1901 19.0894 31.214 19.0915C31.2248 19.0924 31.2449 19.0991 31.2071 19.0901C31.2139 19.0917 31.2211 19.0923 31.228 19.0936C31.2413 19.0961 31.2545 19.0992 31.2675 19.1029C31.2813 19.1067 31.2947 19.1116 31.3082 19.1162C31.3335 19.1246 31.2852 19.1052 31.3079 19.116C31.3156 19.1196 31.3233 19.1232 31.3309 19.127C31.3469 19.1352 31.3624 19.1442 31.3774 19.1539C31.384 19.1582 31.3905 19.1626 31.3969 19.1671C31.4009 19.1699 31.4048 19.1727 31.4086 19.1756C31.3958 19.1658 31.395 19.1653 31.4062 19.1742C31.4308 19.197 31.463 19.2102 31.4967 19.2111C31.5484 19.2111 31.595 19.1804 31.6148 19.1334C31.6346 19.0863 31.6237 19.0321 31.5871 18.9961C31.4659 18.8912 31.3092 18.8349 31.1479 18.8384C31.0692 18.8409 30.9918 18.8593 30.9205 18.8924C30.8599 18.9278 30.8394 19.0046 30.8746 19.0648C30.9114 19.1234 30.9884 19.1433 31.0496 19.11H31.0496Z" fill="black"/>
</svg>
